<svg width="72" height="48" viewBox="0 0 72 48" fill="none" xmlns="http://www.w3.org/2000/svg">
  <g filter="url(#filter0_b_223_204)">
  <g filter="url(#filter1_b_223_204)">
  <rect x="-3.05176e-05" y="10" width="64" height="24" rx="12" fill="black" fill-opacity="0.05"/>
  <rect x="0.499969" y="10.5" width="63" height="23" rx="11.5" stroke="black" stroke-opacity="0.5"/>
  </g>
  <g filter="url(#filter2_d_223_204)">
  <rect x="32" y="6" width="32" height="32" rx="16" fill="white" shape-rendering="crispEdges"/>
  <path d="M48 25.75C50.071 25.75 51.75 24.0711 51.75 22C51.75 19.9289 50.071 18.25 48 18.25C45.9289 18.25 44.25 19.9289 44.25 22C44.25 24.0711 45.9289 25.75 48 25.75Z" stroke="black" stroke-linecap="round" stroke-linejoin="round"/>
  <path d="M48 16.25V15" stroke="black" stroke-linecap="round" stroke-linejoin="round"/>
  <path d="M43.9312 17.9313L43.0499 17.05" stroke="black" stroke-linecap="round" stroke-linejoin="round"/>
  <path d="M42.25 22H41" stroke="black" stroke-linecap="round" stroke-linejoin="round"/>
  <path d="M43.9312 26.0688L43.0499 26.95" stroke="black" stroke-linecap="round" stroke-linejoin="round"/>
  <path d="M48 27.75V29" stroke="black" stroke-linecap="round" stroke-linejoin="round"/>
  <path d="M52.0686 26.0688L52.9499 26.95" stroke="black" stroke-linecap="round" stroke-linejoin="round"/>
  <path d="M53.75 22H55" stroke="black" stroke-linecap="round" stroke-linejoin="round"/>
  <path d="M52.0686 17.9313L52.9499 17.05" stroke="black" stroke-linecap="round" stroke-linejoin="round"/>
  </g>
  </g>
  <defs>
  <filter id="filter0_b_223_204" x="-4.00003" y="-2" width="72" height="48" filterUnits="userSpaceOnUse" color-interpolation-filters="sRGB">
  <feFlood flood-opacity="0" result="BackgroundImageFix"/>
  <feGaussianBlur in="BackgroundImageFix" stdDeviation="2"/>
  <feComposite in2="SourceAlpha" operator="in" result="effect1_backgroundBlur_223_204"/>
  <feBlend mode="normal" in="SourceGraphic" in2="effect1_backgroundBlur_223_204" result="shape"/>
  </filter>
  <filter id="filter1_b_223_204" x="-8.00003" y="2" width="80" height="40" filterUnits="userSpaceOnUse" color-interpolation-filters="sRGB">
  <feFlood flood-opacity="0" result="BackgroundImageFix"/>
  <feGaussianBlur in="BackgroundImageFix" stdDeviation="4"/>
  <feComposite in2="SourceAlpha" operator="in" result="effect1_backgroundBlur_223_204"/>
  <feBlend mode="normal" in="SourceGraphic" in2="effect1_backgroundBlur_223_204" result="shape"/>
  </filter>
  <filter id="filter2_d_223_204" x="24" y="0" width="48" height="48" filterUnits="userSpaceOnUse" color-interpolation-filters="sRGB">
  <feFlood flood-opacity="0" result="BackgroundImageFix"/>
  <feColorMatrix in="SourceAlpha" type="matrix" values="0 0 0 0 0 0 0 0 0 0 0 0 0 0 0 0 0 0 127 0" result="hardAlpha"/>
  <feOffset dy="2"/>
  <feGaussianBlur stdDeviation="4"/>
  <feComposite in2="hardAlpha" operator="out"/>
  <feColorMatrix type="matrix" values="0 0 0 0 0 0 0 0 0 0 0 0 0 0 0 0 0 0 0.1 0"/>
  <feBlend mode="normal" in2="BackgroundImageFix" result="effect1_dropShadow_223_204"/>
  <feBlend mode="normal" in="SourceGraphic" in2="effect1_dropShadow_223_204" result="shape"/>
  </filter>
  </defs>
  </svg>
  